<svg width="34" height="34" viewBox="0 0 34 34" fill="none" xmlns="http://www.w3.org/2000/svg">
<path d="M11.4263 24.5657L15.3 28.714C15.6844 29.1141 16.3883 28.8231 16.3883 28.2776V24.6022L19.4634 24.6019C21.1407 24.6019 22.5035 23.1833 22.5035 21.4374L22.5037 8.26459C22.5037 6.51869 21.1409 5.1001 19.4637 5.1001H3.04005C1.36281 5.1001 0 6.51869 0 8.26459V21.4011C0 23.147 1.36281 24.5656 3.04005 24.5656L11.4263 24.5657ZM6.98859 12.6295L9.71421 12.4113L10.7626 9.75609C10.9722 9.24686 11.6362 9.24686 11.811 9.75609L12.8593 12.4113L15.585 12.6295C16.109 12.6658 16.3189 13.3207 15.8994 13.6843L13.8026 15.5393L14.4666 18.3037C14.6063 18.8129 14.0474 19.2493 13.593 18.9583L11.2518 17.4669L8.91057 18.9583C8.45623 19.2493 7.93214 18.8129 8.03697 18.3037L8.70097 15.5393L6.60421 13.6843C6.25467 13.357 6.46428 12.6661 6.98859 12.6295ZM26.4523 10.3744C25.6836 10.3744 25.0547 9.7198 25.0547 8.91957C25.0547 8.11934 25.6836 7.46473 26.4523 7.46473H32.6024C33.3711 7.46473 34 8.11934 34 8.91957C34 9.7198 33.3711 10.3744 32.6024 10.3744H26.4523ZM25.0895 14.703C25.0895 13.9028 25.7184 13.2482 26.4871 13.2482H31.0299C31.7987 13.2482 32.4275 13.9028 32.4275 14.703C32.4275 15.5032 31.7987 16.1578 31.0299 16.1578H26.4523C25.6836 16.1578 25.0895 15.5032 25.0895 14.703ZM25.0895 20.4865C25.0895 19.6862 25.7184 19.0316 26.4871 19.0316H29.2478C30.0166 19.0316 30.6455 19.6862 30.6455 20.4865C30.6455 21.2867 30.0166 21.9413 29.2478 21.9413H26.4523C25.6835 21.9413 25.0895 21.2867 25.0895 20.4865Z" fill="#EEA956"/>
</svg>
