<svg width="25" height="25" viewBox="0 0 25 25" fill="none" xmlns="http://www.w3.org/2000/svg">
<path d="M8.40167 18.0629L11.25 21.1131C11.5326 21.4074 12.0502 21.1934 12.0502 20.7923V18.0898L14.3113 18.0896C15.5446 18.0896 16.5467 17.0465 16.5467 15.7628L16.5469 6.07683C16.5469 4.79309 15.5448 3.75 14.3115 3.75H2.23533C1.00207 3.75 0 4.79309 0 6.07683V15.736C0 17.0198 1.00207 18.0628 2.23533 18.0628L8.40167 18.0629ZM5.13867 9.28636L7.1428 9.12591L7.91367 7.17352C8.0678 6.79909 8.55602 6.79909 8.68453 7.17352L9.4554 9.12591L11.4595 9.28636C11.8449 9.31304 11.9992 9.79458 11.6907 10.0619L10.149 11.4259L10.6372 13.4585C10.7399 13.8329 10.329 14.1539 9.99489 13.9398L8.27339 12.8432L6.55189 13.9398C6.21781 14.1538 5.83246 13.8329 5.90954 13.4585L6.39777 11.4259L4.85604 10.0619C4.59903 9.82122 4.75315 9.3132 5.13867 9.28636ZM19.4502 7.62817C18.885 7.62817 18.4226 7.14684 18.4226 6.55844C18.4226 5.97003 18.885 5.4887 19.4502 5.4887H23.9723C24.5376 5.4887 25 5.97003 25 6.55844C25 7.14684 24.5376 7.62817 23.9723 7.62817H19.4502ZM18.4482 10.811C18.4482 10.2226 18.9106 9.74123 19.4758 9.74123H22.8161C23.3814 9.74123 23.8438 10.2226 23.8438 10.811C23.8438 11.3994 23.3814 11.8807 22.8161 11.8807H19.4502C18.885 11.8807 18.4482 11.3994 18.4482 10.811ZM18.4482 15.0635C18.4482 14.4751 18.9106 13.9938 19.4758 13.9938H21.5058C22.071 13.9938 22.5334 14.4751 22.5334 15.0635C22.5334 15.6519 22.071 16.1332 21.5058 16.1332H19.4502C18.8849 16.1332 18.4482 15.6519 18.4482 15.0635Z" fill="#BBBBBB"/>
</svg>
