<svg width="40" height="40" viewBox="0 0 40 40" fill="none" xmlns="http://www.w3.org/2000/svg">
<path d="M17.8191 3.61826C18.8091 1.97574 21.1909 1.97574 22.1809 3.61826C22.9082 4.82494 24.4771 5.21166 25.6819 4.48119C27.3218 3.48689 29.4307 4.59373 29.544 6.50819C29.6273 7.91465 30.8368 8.9862 32.243 8.89929C34.1572 8.781 35.5102 10.7411 34.7208 12.4889C34.1409 13.773 34.7139 15.2839 35.9994 15.8604C37.7493 16.6452 38.0364 19.0096 36.5252 20.1904C35.415 21.0578 35.2202 22.662 36.0905 23.7699C37.2753 25.278 36.4307 27.505 34.5438 27.8482C33.1577 28.1003 32.2397 29.4302 32.4955 30.8157C32.8437 32.7017 31.0609 34.281 29.2307 33.7081C27.8861 33.2872 26.4553 34.0381 26.0379 35.3838C25.4697 37.2155 23.1572 37.7855 21.8029 36.4276C20.808 35.4301 19.192 35.4301 18.1971 36.4276C16.8428 37.7855 14.5303 37.2155 13.9621 35.3838C13.5447 34.0381 12.1139 33.2872 10.7693 33.7081C8.93907 34.281 7.15634 32.7017 7.5045 30.8157C7.76027 29.4302 6.84233 28.1003 5.45615 27.8482C3.56931 27.505 2.72474 25.278 3.90946 23.7699C4.77982 22.662 4.58504 21.0578 3.47483 20.1904C1.96362 19.0096 2.2507 16.6452 4.00058 15.8604C5.28613 15.2839 5.85914 13.773 5.27922 12.4889C4.48984 10.7411 5.84281 8.781 7.75696 8.89929C9.16321 8.9862 10.3727 7.91465 10.456 6.50819C10.5693 4.59373 12.6782 3.48689 14.3181 4.48119C15.5229 5.21166 17.0918 4.82494 17.8191 3.61826Z" fill="#4B7EFF"/>
<path d="M11.2016 16.27C11.0903 15.9579 11.253 15.6146 11.5651 15.5032L11.9858 15.3531C12.702 15.0975 13.3026 15.426 13.7076 15.7861C13.9775 16.0262 14.2192 16.33 14.4234 16.6103C14.4478 16.5994 14.4728 16.5893 14.4985 16.5802L23.9155 13.2201C24.541 12.9969 25.2064 13.4343 25.2495 14.0971L25.5954 19.4179C25.6592 20.3986 25.0649 21.3026 24.1394 21.6329L19.6573 23.2321C18.7241 23.5651 17.6834 23.2332 17.1153 22.4214L15.7972 20.5378L13.7065 17.6747L13.703 17.6696C13.433 17.2836 13.1802 16.9232 12.9101 16.6829C12.6477 16.4496 12.5025 16.4429 12.3891 16.4834L11.9684 16.6335C11.6563 16.7448 11.313 16.5821 11.2016 16.27ZM20.6031 27.1438C21.4354 26.8468 21.8694 25.9314 21.5724 25.0991C21.2754 24.2667 20.3599 23.8328 19.5276 24.1297C18.6953 24.4267 18.2613 25.3422 18.5583 26.1745C18.8553 27.0069 19.7707 27.4408 20.6031 27.1438ZM25.8777 25.2618C26.71 24.9648 27.144 24.0493 26.847 23.217C26.55 22.3847 25.6346 21.9507 24.8022 22.2477C23.9699 22.5447 23.5359 23.4601 23.8329 24.2925C24.1299 25.1248 25.0454 25.5588 25.8777 25.2618Z" fill="white"/>
</svg>
